<svg width="283" height="173" viewBox="0 0 283 173" fill="none" xmlns="http://www.w3.org/2000/svg">
<line x1="102.197" y1="172.515" x2="28.1972" y2="153.515" stroke="white"/>
<path d="M177.446 172.515L253.322 152.531" stroke="white"/>
<path d="M74.5919 154.61L102.344 172.572" stroke="white"/>
<path d="M76.3215 153.031L83.0714 156.031L89.8214 159.031L105.821 164.531L122.321 167.031L139.821 168.031L148.321 168.031L157.321 167.031L166.321 166.031L173.821 164.531L181.321 163.031L188.821 160.531L195.821 157.531L201.322 155.531" stroke="white"/>
<path d="M76.5008 152.545L74.7015 155.274" stroke="white"/>
<path d="M201.347 154.959L203.376 159" stroke="white"/>
<path d="M177.322 172.531L203.098 158.584" stroke="white"/>
<path d="M28.3216 154.031L30.0444 132.042L33.3865 110.822L38.7547 87.6004L44.6935 69.4469L54.6727 46.2779L60.7162 37.236L110.822 17.0308" stroke="white"/>
<path d="M253.322 153.031L251.822 131.031L248.822 110.142L243.322 86.5308L237.322 68.5308L227.822 45.5308L223.322 38.031L172.822 17.5308" stroke="white"/>
<path d="M110.322 17.0308L116.822 29.5308L129.322 28.0308L142.322 27.5308L154.822 28.0308L166.322 29.0308L173.329 17.5308" stroke="white"/>
<path d="M125.822 110.531C125.822 121.64 117.927 130.531 108.322 130.531C98.7157 130.531 90.8215 121.64 90.8215 110.531C90.8215 99.422 98.7157 90.5308 108.322 90.5308C117.927 90.5308 125.822 99.422 125.822 110.531Z" stroke="white"/>
<path d="M156.822 110.531C156.822 121.64 164.716 130.531 174.322 130.531C183.927 130.531 191.822 121.64 191.822 110.531C191.822 99.422 183.927 90.5308 174.322 90.5308C164.716 90.5308 156.822 99.422 156.822 110.531Z" stroke="white"/>
</svg>
